# 3ds Max Wavefront OBJ Exporter v0.97b - (c)2007 guruware
# File Created: 06.04.2020 23:23:50

#
# object Señal_7
#

v  -2.7909 230.6538 -1.1993
v  -1.9551 232.6443 -0.7375
v  -0.0316 232.6443 -1.8127
v  -0.0339 230.6538 -2.7404
v  -2.7833 230.6538 1.8692
v  -1.9498 232.6443 1.4033
v  -0.0187 230.6538 3.3966
v  -0.0210 232.6443 2.4689
v  2.7383 230.6538 1.8555
v  1.9025 232.6443 1.3937
v  2.7307 230.6538 -1.2130
v  1.8972 232.6443 -0.7471
v  -0.0342 1.2261 -2.7404
v  -2.7911 1.2261 -1.1993
v  2.7305 1.2261 -1.2130
v  2.7382 1.2261 1.8555
v  -0.0189 1.2261 3.3966
v  -2.7836 1.2261 1.8692
v  -0.0262 232.6443 0.3281
v  25.7213 189.4204 -3.4053
v  -25.7246 189.4204 -3.2406
v  -25.7246 235.7751 -3.2406
v  25.7213 235.7751 -3.4053
v  16.6392 167.9064 -3.0992
v  -16.6419 167.9064 -2.9345
v  -16.6419 186.4956 -2.9345
v  16.6392 186.4956 -3.0992
v  25.7214 189.4204 -3.0992
v  -25.7244 189.4204 -2.9345
v  -25.7244 235.7751 -2.9345
v  25.7214 235.7751 -3.0992
v  16.6392 167.9064 -3.4051
v  -16.6419 167.9064 -3.2404
v  -16.6419 186.4956 -3.2404
v  16.6392 186.4956 -3.4051
# 35 vertices

vn -0.4631 0.3867 -0.7975
vn -0.9222 0.3867 0.0022
vn -0.4591 0.3867 0.7998
vn 0.4631 0.3867 0.7975
vn 0.9222 0.3867 -0.0022
vn 0.4591 0.3867 -0.7998
vn -0.5022 0.0000 -0.8648
vn 0.4978 -0.0000 -0.8673
vn 1.0000 -0.0000 -0.0024
vn 0.5022 -0.0000 0.8648
vn -0.4978 0.0000 0.8673
vn -1.0000 0.0000 0.0024
vn 0.0000 1.0000 -0.0000
vn -0.0033 0.0000 -1.0000
vn 0.0051 -0.0000 1.0000
vn 0.0051 0.0000 1.0000
vn 0.0033 -0.0000 1.0000
vn 0.0033 0.0000 1.0000
vn -0.0051 0.0000 -1.0000
# 19 vertex normals

vt 0.9236 0.9908 0.0000
vt 0.9236 0.9954 0.0000
vt 0.9208 0.9953 0.0000
vt 0.9206 0.9907 0.0000
vt 0.9265 0.9908 0.0000
vt 0.9265 0.9954 0.0000
vt 0.9294 0.9908 0.0000
vt 0.9294 0.9954 0.0000
vt 0.9324 0.9907 0.0000
vt 0.9322 0.9953 0.0000
vt 0.9354 0.9914 0.0000
vt 0.9346 0.9962 0.0000
vt 0.9175 0.9914 0.0000
vt 0.9183 0.9962 0.0000
vt 0.9205 0.3666 0.0000
vt 0.9235 0.3664 0.0000
vt 0.9174 0.3667 0.0000
vt 0.9326 0.3665 0.0000
vt 0.9357 0.3667 0.0000
vt 0.9295 0.3664 0.0000
vt 0.9265 0.3664 0.0000
vt 0.9278 0.9955 0.0000
vt 0.4950 0.7941 0.0000
vt 0.4950 0.9559 0.0000
vt 0.3154 0.9559 0.0000
vt 0.3154 0.7941 0.0000
vt 0.1847 0.4080 0.0000
vt 0.1847 0.4729 0.0000
vt 0.3643 0.4729 0.0000
vt 0.3643 0.4080 0.0000
vt 0.2816 0.3170 0.0000
vt 0.1979 0.3170 0.0000
vt 0.1979 0.3924 0.0000
vt 0.2816 0.3924 0.0000
vt 0.5969 0.2545 0.0000
vt 0.7765 0.2545 0.0000
vt 0.7765 0.3194 0.0000
vt 0.5969 0.3194 0.0000
# 38 texture coords

o Señal_7
g Señal_7
s 1
f 1/1/1 2/2/1 3/3/1 
f 3/3/1 4/4/1 1/1/1 
s 2
f 1/1/2 5/5/2 6/6/2 
f 6/6/2 2/2/2 1/1/2 
s 1
f 5/5/3 7/7/3 8/8/3 
f 8/8/3 6/6/3 5/5/3 
s 2
f 7/7/4 9/9/4 10/10/4 
f 10/10/4 8/8/4 7/7/4 
s 1
f 9/9/5 11/11/5 12/12/5 
f 12/12/5 10/10/5 9/9/5 
s 2
f 11/13/6 4/4/6 3/3/6 
f 3/3/6 12/14/6 11/13/6 
s 4
f 13/15/7 14/16/7 1/1/7 
f 1/1/7 4/4/7 13/15/7 
s 8
f 4/4/8 11/13/8 15/17/8 
f 15/17/8 13/15/8 4/4/8 
s 4
f 11/11/9 9/9/9 16/18/9 
f 16/18/9 15/19/9 11/11/9 
s 8
f 9/9/10 7/7/10 17/20/10 
f 17/20/10 16/18/10 9/9/10 
s 4
f 7/7/11 5/5/11 18/21/11 
f 18/21/11 17/20/11 7/7/11 
s 8
f 5/5/12 1/1/12 14/16/12 
f 14/16/12 18/21/12 5/5/12 
s 4
f 3/3/13 2/2/13 19/22/13 
f 2/2/13 6/6/13 19/22/13 
f 6/6/13 8/8/13 19/22/13 
f 8/8/13 10/10/13 19/22/13 
f 10/10/13 12/12/13 19/22/13 
f 12/14/13 3/3/13 19/14/13 
f 21/23/14 22/24/14 23/25/14 
f 23/25/14 20/26/14 21/23/14 
f 24/27/15 27/28/16 26/29/15 
f 26/29/15 25/30/15 24/27/15 
f 29/31/17 28/32/18 31/33/17 
f 31/33/17 30/34/17 29/31/17 
f 32/35/19 33/36/19 34/37/19 
f 34/37/19 35/38/19 32/35/19 
# 38 faces

