# 3ds Max Wavefront OBJ Exporter v0.97b - (c)2007 guruware
# File Created: 06.04.2020 23:24:15

#
# object Señal_5
#

v  -2.7909 230.6538 -1.2007
v  -1.9551 232.6443 -0.7389
v  -0.0316 232.6443 -1.8141
v  -0.0339 230.6538 -2.7418
v  -2.7832 230.6538 1.8678
v  -1.9498 232.6443 1.4019
v  -0.0186 230.6538 3.3953
v  -0.0210 232.6443 2.4676
v  2.7383 230.6538 1.8541
v  1.9026 232.6443 1.3923
v  2.7307 230.6538 -1.2144
v  1.8973 232.6443 -0.7485
v  -0.0341 1.2261 -2.7418
v  -2.7911 1.2261 -1.2007
v  2.7305 1.2261 -1.2144
v  2.7382 1.2261 1.8541
v  -0.0188 1.2261 3.3953
v  -2.7835 1.2261 1.8678
v  23.4032 170.1586 -3.4067
v  -23.4064 170.1586 -3.2420
v  -23.4064 184.2435 -3.2420
v  23.4032 184.2435 -3.4067
v  -0.0263 232.6443 0.3267
v  25.7212 189.4205 -3.4068
v  -25.7245 189.4205 -3.2422
v  -25.7245 235.7752 -3.2422
v  25.7212 235.7752 -3.4068
v  25.7213 189.4205 -3.1007
v  -25.7245 189.4205 -2.9360
v  -25.7245 235.7752 -2.9360
v  25.7213 235.7752 -3.1007
v  23.4032 170.1586 -3.1007
v  23.4032 184.2435 -3.1007
v  -23.4063 184.2435 -2.9360
v  -23.4063 170.1586 -2.9360
# 35 vertices

vn -0.4631 0.3867 -0.7975
vn -0.9222 0.3867 0.0022
vn -0.4591 0.3867 0.7998
vn 0.4631 0.3867 0.7975
vn 0.9222 0.3867 -0.0022
vn 0.4591 0.3867 -0.7998
vn -0.5022 0.0000 -0.8648
vn 0.4978 -0.0000 -0.8673
vn 1.0000 -0.0000 -0.0024
vn 0.5022 -0.0000 0.8648
vn -0.4978 0.0000 0.8673
vn -1.0000 0.0000 0.0024
vn -0.0036 0.0000 -1.0000
vn 0.0000 1.0000 -0.0000
vn -0.0033 0.0000 -1.0000
vn 0.0033 -0.0000 1.0000
vn 0.0033 0.0000 1.0000
vn 0.0036 -0.0000 1.0000
vn 0.0036 0.0000 1.0000
# 19 vertex normals

vt 0.9236 0.9908 0.0000
vt 0.9236 0.9954 0.0000
vt 0.9208 0.9953 0.0000
vt 0.9206 0.9907 0.0000
vt 0.9265 0.9908 0.0000
vt 0.9265 0.9954 0.0000
vt 0.9294 0.9908 0.0000
vt 0.9294 0.9954 0.0000
vt 0.9324 0.9907 0.0000
vt 0.9322 0.9953 0.0000
vt 0.9354 0.9914 0.0000
vt 0.9346 0.9962 0.0000
vt 0.9175 0.9914 0.0000
vt 0.9183 0.9962 0.0000
vt 0.9205 0.3666 0.0000
vt 0.9235 0.3664 0.0000
vt 0.9174 0.3667 0.0000
vt 0.9326 0.3665 0.0000
vt 0.9357 0.3667 0.0000
vt 0.9295 0.3664 0.0000
vt 0.9265 0.3664 0.0000
vt 0.5576 0.7121 0.0000
vt 0.7330 0.7121 0.0000
vt 0.7330 0.7754 0.0000
vt 0.5576 0.7754 0.0000
vt 0.9278 0.9955 0.0000
vt 0.4695 0.4825 0.0000
vt 0.4695 0.6443 0.0000
vt 0.2899 0.6443 0.0000
vt 0.2899 0.4825 0.0000
vt 0.1829 0.3181 0.0000
vt 0.1052 0.3181 0.0000
vt 0.1052 0.3898 0.0000
vt 0.1829 0.3898 0.0000
vt 0.1847 0.4080 0.0000
vt 0.1847 0.4729 0.0000
vt 0.3643 0.4729 0.0000
vt 0.3643 0.4080 0.0000
# 38 texture coords

o Señal_5
g Señal_5
s 1
f 1/1/1 2/2/1 3/3/1 
f 3/3/1 4/4/1 1/1/1 
s 2
f 1/1/2 5/5/2 6/6/2 
f 6/6/2 2/2/2 1/1/2 
s 1
f 5/5/3 7/7/3 8/8/3 
f 8/8/3 6/6/3 5/5/3 
s 2
f 7/7/4 9/9/4 10/10/4 
f 10/10/4 8/8/4 7/7/4 
s 1
f 9/9/5 11/11/5 12/12/5 
f 12/12/5 10/10/5 9/9/5 
s 2
f 11/13/6 4/4/6 3/3/6 
f 3/3/6 12/14/6 11/13/6 
s 4
f 13/15/7 14/16/7 1/1/7 
f 1/1/7 4/4/7 13/15/7 
s 8
f 4/4/8 11/13/8 15/17/8 
f 15/17/8 13/15/8 4/4/8 
s 4
f 11/11/9 9/9/9 16/18/9 
f 16/18/9 15/19/9 11/11/9 
s 8
f 9/9/10 7/7/10 17/20/10 
f 17/20/10 16/18/10 9/9/10 
s 4
f 7/7/11 5/5/11 18/21/11 
f 18/21/11 17/20/11 7/7/11 
s 8
f 5/5/12 1/1/12 14/16/12 
f 14/16/12 18/21/12 5/5/12 
s 4
f 19/22/13 20/23/13 21/24/13 
f 21/24/13 22/25/13 19/22/13 
f 3/3/14 2/2/14 23/26/14 
f 2/2/14 6/6/14 23/26/14 
f 6/6/14 8/8/14 23/26/14 
f 8/8/14 10/10/14 23/26/14 
f 10/10/14 12/12/14 23/26/14 
f 12/14/14 3/3/14 23/14/14 
f 25/27/15 26/28/15 27/29/15 
f 27/29/15 24/30/15 25/27/15 
f 29/31/16 28/32/17 31/33/16 
f 31/33/16 30/34/16 29/31/16 
f 32/35/18 33/36/19 34/37/18 
f 34/37/18 35/38/18 32/35/18 
# 38 faces

