# 3ds Max Wavefront OBJ Exporter v0.97b - (c)2007 guruware
# File Created: 06.04.2020 23:25:05

#
# object SeñalCalle1
#

v  -2.7720 230.6538 21.8665
v  -1.9362 232.6443 22.3283
v  -0.0127 232.6443 21.2531
v  -0.0150 230.6538 20.3254
v  -2.7643 230.6538 24.9351
v  -1.9308 232.6443 24.4691
v  0.0003 230.6538 26.4625
v  -0.0020 232.6443 25.5348
v  2.7573 230.6538 24.9213
v  1.9215 232.6443 24.4596
v  2.7497 230.6538 21.8528
v  1.9161 232.6443 22.3187
v  -0.0152 1.2261 20.3254
v  -2.7722 1.2261 21.8665
v  2.7494 1.2261 21.8528
v  2.7571 1.2261 24.9213
v  0.0001 1.2261 26.4625
v  -2.7646 1.2261 24.9351
v  -0.0074 232.6443 23.3939
v  -0.9396 212.5089 22.8921
v  -47.7492 212.5089 23.0568
v  -47.7492 226.5938 23.0568
v  -0.9396 226.5938 22.8921
v  0.0750 212.5090 20.3252
v  -0.0897 212.5090 -26.4844
v  -0.0897 226.5939 -26.4844
v  0.0750 226.5939 20.3252
v  -0.9396 212.5089 22.8921
v  -47.7491 212.5089 23.0568
v  -47.7491 226.5938 23.0568
v  -0.9396 226.5938 22.8921
v  0.0751 212.5090 20.3252
v  -0.0896 212.5090 -26.4844
v  -0.0896 226.5939 -26.4844
v  0.0751 226.5939 20.3252
# 35 vertices

vn -0.8480 0.2094 -0.4868
vn -0.5507 0.7725 -0.3162
vn -0.0016 0.7725 -0.6350
vn -0.0025 0.2094 -0.9778
vn -0.8456 0.2094 0.4910
vn -0.5492 0.7725 0.3189
vn 0.0025 0.2094 0.9778
vn 0.0016 0.7725 0.6350
vn 0.8480 0.2094 0.4868
vn 0.5507 0.7725 0.3162
vn 0.8456 0.2094 -0.4910
vn 0.5492 0.7725 -0.3189
vn -0.0025 0.0000 -1.0000
vn -0.8673 0.0000 -0.4979
vn 0.8648 -0.0000 -0.5021
vn 0.8673 -0.0000 0.4979
vn 0.0025 -0.0000 1.0000
vn -0.8648 0.0000 0.5021
vn 0.0000 1.0000 -0.0000
vn -0.0036 0.0000 -1.0000
vn 1.0000 0.0000 -0.0034
vn 0.0036 0.0000 1.0000
vn -1.0000 0.0000 0.0034
# 23 vertex normals

vt 0.9236 0.9908 0.0000
vt 0.9236 0.9954 0.0000
vt 0.9208 0.9953 0.0000
vt 0.9206 0.9907 0.0000
vt 0.9265 0.9908 0.0000
vt 0.9265 0.9954 0.0000
vt 0.9294 0.9908 0.0000
vt 0.9294 0.9954 0.0000
vt 0.9324 0.9907 0.0000
vt 0.9322 0.9953 0.0000
vt 0.9354 0.9914 0.0000
vt 0.9346 0.9962 0.0000
vt 0.9175 0.9914 0.0000
vt 0.9183 0.9962 0.0000
vt 0.9205 0.3666 0.0000
vt 0.9235 0.3664 0.0000
vt 0.9174 0.3667 0.0000
vt 0.9326 0.3665 0.0000
vt 0.9357 0.3667 0.0000
vt 0.9295 0.3664 0.0000
vt 0.9265 0.3664 0.0000
vt 0.9278 0.9955 0.0000
vt 0.5576 0.7121 0.0000
vt 0.7330 0.7121 0.0000
vt 0.7330 0.7754 0.0000
vt 0.5576 0.7754 0.0000
# 26 texture coords

o SeñalCalle1
g SeñalCalle1
s 1
f 1/1/1 2/2/2 3/3/3 
f 3/3/3 4/4/4 1/1/1 
f 1/1/1 5/5/5 6/6/6 
f 6/6/6 2/2/2 1/1/1 
f 5/5/5 7/7/7 8/8/8 
f 8/8/8 6/6/6 5/5/5 
f 7/7/7 9/9/9 10/10/10 
f 10/10/10 8/8/8 7/7/7 
f 9/9/9 11/11/11 12/12/12 
f 12/12/12 10/10/10 9/9/9 
f 11/13/11 4/4/4 3/3/3 
f 3/3/3 12/14/12 11/13/11 
f 13/15/13 14/16/14 1/1/1 
f 1/1/1 4/4/4 13/15/13 
f 4/4/4 11/13/11 15/17/15 
f 15/17/15 13/15/13 4/4/4 
f 11/11/11 9/9/9 16/18/16 
f 16/18/16 15/19/15 11/11/11 
f 9/9/9 7/7/7 17/20/17 
f 17/20/17 16/18/16 9/9/9 
f 7/7/7 5/5/5 18/21/18 
f 18/21/18 17/20/17 7/7/7 
f 5/5/5 1/1/1 14/16/14 
f 14/16/14 18/21/18 5/5/5 
f 3/3/3 2/2/2 19/22/19 
f 2/2/2 6/6/6 19/22/19 
f 6/6/6 8/8/8 19/22/19 
f 8/8/8 10/10/10 19/22/19 
f 10/10/10 12/12/12 19/22/19 
f 12/14/12 3/3/3 19/14/19 
s 4
f 20/23/20 21/24/20 22/25/20 
f 22/25/20 23/26/20 20/23/20 
f 24/23/21 25/24/21 26/25/21 
f 26/25/21 27/26/21 24/23/21 
f 28/23/22 31/26/22 30/25/22 
f 30/25/22 29/24/22 28/23/22 
f 32/23/23 35/26/23 34/25/23 
f 34/25/23 33/24/23 32/23/23 
# 38 faces

