# 3ds Max Wavefront OBJ Exporter v0.97b - (c)2007 guruware
# File Created: 06.04.2020 23:24:02

#
# object Señal_6
#

v  -2.7908 230.6538 -1.2011
v  -1.9550 232.6443 -0.7394
v  -0.0316 232.6443 -1.8146
v  -0.0338 230.6538 -2.7423
v  -2.7831 230.6538 1.8674
v  -1.9496 232.6443 1.4015
v  -0.0186 230.6538 3.3948
v  -0.0209 232.6443 2.4671
v  2.7385 230.6538 1.8536
v  1.9026 232.6443 1.3919
v  2.7308 230.6538 -1.2149
v  1.8973 232.6443 -0.7490
v  -0.0340 1.2261 -2.7423
v  -2.7910 1.2261 -1.2011
v  2.7307 1.2261 -1.2149
v  2.7383 1.2261 1.8536
v  -0.0188 1.2261 3.3948
v  -2.7834 1.2261 1.8674
v  -0.0262 232.6443 0.3262
v  25.7212 189.4204 -3.4073
v  -25.7245 189.4204 -3.2427
v  -25.7245 235.7751 -3.2427
v  25.7212 235.7751 -3.4073
v  25.7212 189.4204 -3.1012
v  -25.7245 189.4204 -2.9365
v  -25.7245 235.7751 -2.9365
v  25.7212 235.7751 -3.1012
# 27 vertices

vn -0.4631 0.3867 -0.7975
vn -0.9222 0.3867 0.0022
vn -0.4591 0.3867 0.7998
vn 0.4631 0.3867 0.7975
vn 0.9222 0.3867 -0.0022
vn 0.4591 0.3867 -0.7998
vn -0.5022 0.0000 -0.8648
vn -0.5022 0.0000 -0.8647
vn 0.4978 -0.0000 -0.8673
vn 1.0000 -0.0000 -0.0024
vn 0.5022 -0.0000 0.8648
vn -0.4978 0.0000 0.8673
vn -1.0000 0.0000 0.0024
vn 0.0000 1.0000 -0.0000
vn -0.0033 0.0000 -1.0000
vn 0.0033 -0.0000 1.0000
vn 0.0033 0.0000 1.0000
# 17 vertex normals

vt 0.9236 0.9908 0.0000
vt 0.9236 0.9954 0.0000
vt 0.9208 0.9953 0.0000
vt 0.9206 0.9907 0.0000
vt 0.9265 0.9908 0.0000
vt 0.9265 0.9954 0.0000
vt 0.9294 0.9908 0.0000
vt 0.9294 0.9954 0.0000
vt 0.9324 0.9907 0.0000
vt 0.9322 0.9953 0.0000
vt 0.9354 0.9914 0.0000
vt 0.9346 0.9962 0.0000
vt 0.9175 0.9914 0.0000
vt 0.9183 0.9962 0.0000
vt 0.9205 0.3666 0.0000
vt 0.9235 0.3664 0.0000
vt 0.9174 0.3667 0.0000
vt 0.9326 0.3665 0.0000
vt 0.9357 0.3667 0.0000
vt 0.9295 0.3664 0.0000
vt 0.9265 0.3664 0.0000
vt 0.9278 0.9955 0.0000
vt 0.1688 0.4599 0.0000
vt 0.1688 0.6158 0.0000
vt 0.0077 0.6158 0.0000
vt 0.0077 0.4599 0.0000
vt 0.0870 0.3218 0.0000
vt 0.0159 0.3218 0.0000
vt 0.0159 0.3928 0.0000
vt 0.0870 0.3928 0.0000
# 30 texture coords

o Señal_6
g Señal_6
s 1
f 1/1/1 2/2/1 3/3/1 
f 3/3/1 4/4/1 1/1/1 
s 2
f 1/1/2 5/5/2 6/6/2 
f 6/6/2 2/2/2 1/1/2 
s 1
f 5/5/3 7/7/3 8/8/3 
f 8/8/3 6/6/3 5/5/3 
s 2
f 7/7/4 9/9/4 10/10/4 
f 10/10/4 8/8/4 7/7/4 
s 1
f 9/9/5 11/11/5 12/12/5 
f 12/12/5 10/10/5 9/9/5 
s 2
f 11/13/6 4/4/6 3/3/6 
f 3/3/6 12/14/6 11/13/6 
s 4
f 13/15/7 14/16/7 1/1/8 
f 1/1/8 4/4/8 13/15/7 
s 8
f 4/4/9 11/13/9 15/17/9 
f 15/17/9 13/15/9 4/4/9 
s 4
f 11/11/10 9/9/10 16/18/10 
f 16/18/10 15/19/10 11/11/10 
s 8
f 9/9/11 7/7/11 17/20/11 
f 17/20/11 16/18/11 9/9/11 
s 4
f 7/7/12 5/5/12 18/21/12 
f 18/21/12 17/20/12 7/7/12 
s 8
f 5/5/13 1/1/13 14/16/13 
f 14/16/13 18/21/13 5/5/13 
s 4
f 3/3/14 2/2/14 19/22/14 
f 2/2/14 6/6/14 19/22/14 
f 6/6/14 8/8/14 19/22/14 
f 8/8/14 10/10/14 19/22/14 
f 10/10/14 12/12/14 19/22/14 
f 12/14/14 3/3/14 19/14/14 
f 21/23/15 22/24/15 23/25/15 
f 23/25/15 20/26/15 21/23/15 
f 25/27/16 24/28/17 27/29/16 
f 27/29/16 26/30/16 25/27/16 
# 34 faces

